<svg width="67" height="67" viewBox="0 0 67 67" fill="none" xmlns="http://www.w3.org/2000/svg">
<rect width="67" height="67" fill="#EB4026"/>
<path d="M47.9466 23.0032C50.7086 23.0032 52.9478 20.7637 52.9478 18.0015C52.9478 15.2393 50.7085 13 47.9466 13C45.1839 13 42.9443 15.2395 42.9443 18.0015C42.9441 20.7637 45.1837 23.0032 47.9466 23.0032Z" fill="white"/>
<path d="M56.1735 21.5629C53.3016 25.5857 49.4559 26.0515 45.3177 23.5948C45.036 23.4278 43.7861 22.7392 43.5094 22.5748C36.8522 18.6227 30.2027 20.1725 25.7434 26.4174C23.8484 29.0735 28.2312 31.591 30.1049 28.9659C32.409 25.7394 35.3387 24.8058 38.5428 25.8278C36.9022 28.6755 35.4678 31.506 33.4438 35.5274C31.4193 39.5488 26.9495 42.7602 22.6546 40.2485C19.5556 38.4371 16.7609 42.8892 19.8506 44.6949C25.7141 48.1218 32.5893 46.0175 36.099 41.5629C36.2207 41.628 36.3494 41.6867 36.4906 41.736C39.3577 42.735 43.1162 45.3945 44.2614 46.3371C45.4063 47.2796 47.3734 52.0813 48.5415 54.4939C49.9586 57.4213 54.5351 55.2891 53.1127 52.3493C51.7886 49.612 49.566 44.1489 47.8325 42.7667C46.4418 41.6582 43.742 39.595 41.4522 38.4246C43.0014 35.4239 44.6144 32.4556 46.3124 29.5385C51.7251 31.1969 56.8698 29.2434 60.5339 24.1108C62.4304 21.4551 58.0487 18.9375 56.1735 21.5629Z" fill="white"/>
<line x1="14.561" y1="45.3538" x2="7.49999" y2="45.3538" stroke="white" stroke-width="3" stroke-linecap="round"/>
<line x1="21.939" y1="34.6218" x2="8.17072" y2="34.6218" stroke="white" stroke-width="3" stroke-linecap="round"/>
<line x1="21.2683" y1="26.5732" x2="12.8659" y2="26.5732" stroke="white" stroke-width="3" stroke-linecap="round"/>
<line x1="33.3415" y1="16.5122" x2="24.939" y2="16.5122" stroke="white" stroke-width="3" stroke-linecap="round"/>
</svg>
