<svg width="67" height="67" viewBox="0 0 67 67" fill="none" xmlns="http://www.w3.org/2000/svg">
<rect width="67" height="67" fill="#EB4026"/>
<path d="M32.8478 14.9801C25.0238 16.4287 19.5571 23.6542 20.0283 31.5997C20.0368 31.7463 20.0547 31.8843 20.074 32.0237C19.7873 33.4487 20.3286 35.1332 22.0288 35.8202C24.7428 36.9192 27.8394 38.5965 28.8646 41.5322C29.9614 44.6759 27.5848 48.027 25.668 50.2749C23.137 53.2421 27.4204 57.5684 29.9721 54.5798C33.4262 50.528 35.8793 45.9722 34.894 40.5284C34.8662 40.3789 34.8233 40.2367 34.7896 40.0908C35.0242 39.7576 35.195 39.3608 35.2472 38.8811C35.8786 32.999 37.5344 27.2935 38.1071 21.4028C38.5726 20.4018 38.7163 19.2428 38.4367 18.2104C37.7547 15.6615 35.2937 14.5276 32.8478 14.9801ZM31.0575 34.2444C30.444 33.7082 29.7891 33.212 29.1042 32.7551C29.1599 32.417 29.1807 32.0545 29.1592 31.6634C29.132 31.2115 29.1528 30.7575 29.18 30.3078C29.1914 30.1491 29.2057 29.9932 29.2214 29.8373C29.2286 29.7952 29.2364 29.7515 29.2479 29.6929C29.3566 29.083 29.5239 28.486 29.709 27.8962C29.7884 27.6838 29.8306 27.5666 29.8377 27.533C29.9743 27.2455 30.1244 26.9646 30.2796 26.6864C30.7858 25.777 30.5041 26.2174 31.2562 25.4502C31.6473 25.0513 32.2014 24.7231 32.8549 24.4557C32.3559 27.7339 31.6373 30.9791 31.0575 34.2444Z" fill="white"/>
<path d="M43.5638 21.5335C46.1964 21.5335 48.3306 19.3993 48.3306 16.7667C48.3306 14.1341 46.1964 12 43.5638 12C40.9312 12 38.7971 14.1341 38.7971 16.7667C38.7971 19.3993 40.9312 21.5335 43.5638 21.5335Z" fill="white"/>
</svg>
