<svg width="67" height="67" viewBox="0 0 67 67" fill="none" xmlns="http://www.w3.org/2000/svg">
<rect width="67" height="67" fill="#EB4026"/>
<path d="M44.8214 49.0443C45.1387 49.0443 45.4517 49.165 45.6898 49.395C47.212 50.8649 49.4324 51.3543 51.4063 50.7417C50.136 48.0952 49.96 45.0633 50.9444 42.256C52.1661 38.7631 52.4723 35.2623 51.0819 31.7512C49.8603 28.6667 47.5031 26.1041 44.5197 24.6428C44.7033 25.6213 44.7958 26.6183 44.7958 27.6258C44.7959 31.9023 43.1514 35.9244 40.1656 38.9514C37.1794 41.9788 33.1765 43.6811 28.8943 43.7447C28.0987 43.7572 27.3067 43.7104 26.5237 43.6072C28.8771 47.7324 33.3156 50.4191 38.193 50.4914C40.3266 50.5244 42.3752 50.0774 44.2831 49.1663C44.4549 49.0841 44.6389 49.0443 44.8214 49.0443Z" fill="white"/>
<path d="M28.9296 14.0027C21.3331 13.8519 15.0184 19.9973 15 27.5921C14.9956 29.4477 15.3578 31.2468 16.0767 32.9396C16.0871 32.9642 16.0968 32.9891 16.1056 33.0144C17.0901 35.8217 16.9141 38.8536 15.6437 41.5002C17.6178 42.1125 19.8379 41.6233 21.3602 40.1533C21.7353 39.791 22.2964 39.6998 22.767 39.9247C24.6745 40.8358 26.7234 41.2842 28.857 41.25C36.394 41.138 42.2979 35.1535 42.2978 27.6257C42.2979 20.2621 36.3009 14.1509 28.9296 14.0027ZM21.3685 29.6606C20.2771 29.6606 19.3923 28.7773 19.3923 27.6877C19.3923 26.5982 20.2771 25.7149 21.3685 25.7149C22.4599 25.7149 23.3447 26.5982 23.3447 27.6877C23.3446 28.7773 22.4599 29.6606 21.3685 29.6606ZM28.649 29.6606C27.5576 29.6606 26.6728 28.7773 26.6728 27.6877C26.6728 26.5982 27.5576 25.7149 28.649 25.7149C29.7404 25.7149 30.6252 26.5982 30.6252 27.6877C30.6252 28.7773 29.7404 29.6606 28.649 29.6606ZM35.9296 29.6606C34.8382 29.6606 33.9534 28.7773 33.9534 27.6877C33.9534 26.5982 34.8382 25.7149 35.9296 25.7149C37.021 25.7149 37.9058 26.5982 37.9058 27.6877C37.9058 28.7773 37.021 29.6606 35.9296 29.6606Z" fill="white"/>
</svg>
