<svg width="181" height="23" viewBox="0 0 181 23" fill="none" xmlns="http://www.w3.org/2000/svg">
<path d="M32 19.5662V5.13123H34.7886V19.5662H32Z" fill="#EB4026"/>
<path d="M36.6087 19.5662V5.13123H39.5777L40.9064 12.0452V5.13123H43.6949V19.5662H40.8735L39.4301 12.3487V19.5662H36.6087Z" fill="#EB4026"/>
<path d="M49.0746 19.6974C47.7568 19.6974 46.8054 19.3693 46.2204 18.7132C45.6408 18.0571 45.351 17.0127 45.351 15.5801V14.1695H48.2052V15.9738C48.2052 16.3074 48.2544 16.5698 48.3528 16.7612C48.4567 16.9471 48.6344 17.04 48.8859 17.04C49.1484 17.04 49.3288 16.9635 49.4272 16.8104C49.5311 16.6573 49.5831 16.4058 49.5831 16.0558C49.5831 15.613 49.5393 15.2439 49.4518 14.9486C49.3644 14.6479 49.2113 14.3636 48.9925 14.0956C48.7793 13.8223 48.4813 13.5051 48.0986 13.1443L46.8027 11.914C45.8349 11.0009 45.351 9.95654 45.351 8.78097C45.351 7.55072 45.6353 6.61299 46.204 5.9678C46.7781 5.3226 47.6065 5 48.6891 5C50.0123 5 50.95 5.35267 51.5023 6.05801C52.06 6.76336 52.3388 7.83504 52.3388 9.27307H49.4026V8.28067C49.4026 8.08383 49.3452 7.93073 49.2304 7.82137C49.121 7.71202 48.9707 7.65734 48.7793 7.65734C48.5497 7.65734 48.3802 7.72295 48.2708 7.85418C48.1669 7.97994 48.115 8.14397 48.115 8.34628C48.115 8.54859 48.1696 8.7673 48.279 9.00241C48.3884 9.23753 48.6043 9.50818 48.9269 9.81438L50.5919 11.4137C50.9254 11.7308 51.2316 12.0671 51.5105 12.4225C51.7893 12.7724 52.0135 13.1825 52.183 13.6528C52.3525 14.1175 52.4372 14.6862 52.4372 15.3587C52.4372 16.7147 52.1857 17.7782 51.6827 18.5492C51.1851 19.3146 50.3157 19.6974 49.0746 19.6974Z" fill="#EB4026"/>
<path d="M53.6832 19.5662L55.0775 5.13123H59.9739L61.3436 19.5662H58.6124L58.4074 17.2369H56.6686L56.4882 19.5662H53.6832ZM56.8737 14.9322H58.186L57.5544 7.59173H57.4232L56.8737 14.9322Z" fill="#EB4026"/>
<path d="M62.9013 19.5662V5.13123H65.8703L67.1989 12.0452V5.13123H69.9875V19.5662H67.1661L65.7226 12.3487V19.5662H62.9013Z" fill="#EB4026"/>
<path d="M71.9388 19.5662V5.13123H77.7128V7.91979H74.875V10.733H77.598V13.4477H74.875V16.753H77.9015V19.5662H71.9388Z" fill="#EB4026"/>
<path d="M80.1111 19.5662V5.13123H82.9817V10.2901H84.3432V5.13123H87.2138V19.5662H84.3432V13.0212H82.9817V19.5662H80.1111Z" fill="#EFEFEF"/>
<path d="M92.6098 19.6974C91.4561 19.6974 90.5731 19.3502 89.9607 18.6558C89.3537 17.9559 89.0503 16.9471 89.0503 15.6294V8.77277C89.0503 7.53705 89.351 6.59933 89.9525 5.9596C90.5594 5.31986 91.4452 5 92.6098 5C93.7744 5 94.6575 5.31986 95.2589 5.9596C95.8659 6.59933 96.1693 7.53705 96.1693 8.77277V15.6294C96.1693 16.9471 95.8631 17.9559 95.2507 18.6558C94.6438 19.3502 93.7635 19.6974 92.6098 19.6974ZM92.6344 17.04C93.0718 17.04 93.2905 16.6163 93.2905 15.7688V8.72356C93.2905 8.01275 93.0773 7.65734 92.6508 7.65734C92.1696 7.65734 91.9291 8.02095 91.9291 8.74816V15.7852C91.9291 16.2336 91.9837 16.5561 92.0931 16.753C92.2024 16.9444 92.3829 17.04 92.6344 17.04Z" fill="#EFEFEF"/>
<path d="M98.0058 19.5662V5.13123H102.402L103.616 13.9316L104.821 5.13123H109.259V19.5662H106.618V9.16645L104.961 19.5662H102.369L100.614 9.16645V19.5662H98.0058Z" fill="#EFEFEF"/>
<path d="M111.21 19.5662V5.13123H116.984V7.91979H114.146V10.733H116.869V13.4477H114.146V16.753H117.172V19.5662H111.21Z" fill="#EFEFEF"/>
<path d="M119.936 19.5662L118.386 5.13123H121.207L122.003 14.2433L122.815 5.13123H125.505L126.276 14.2433L127.047 5.13123H129.901L128.326 19.5662H124.865L124.143 12.6193L123.454 19.5662H119.936Z" fill="#EFEFEF"/>
<path d="M134.879 19.6974C133.725 19.6974 132.842 19.3502 132.229 18.6558C131.623 17.9559 131.319 16.9471 131.319 15.6294V8.77277C131.319 7.53705 131.62 6.59933 132.221 5.9596C132.828 5.31986 133.714 5 134.879 5C136.043 5 136.926 5.31986 137.528 5.9596C138.135 6.59933 138.438 7.53705 138.438 8.77277V15.6294C138.438 16.9471 138.132 17.9559 137.52 18.6558C136.913 19.3502 136.032 19.6974 134.879 19.6974ZM134.903 17.04C135.341 17.04 135.559 16.6163 135.559 15.7688V8.72356C135.559 8.01275 135.346 7.65734 134.92 7.65734C134.438 7.65734 134.198 8.02095 134.198 8.74816V15.7852C134.198 16.2336 134.253 16.5561 134.362 16.753C134.471 16.9444 134.652 17.04 134.903 17.04Z" fill="#EFEFEF"/>
<path d="M140.275 19.5662V5.13123H144.704C145.442 5.13123 145.999 5.30073 146.377 5.63973C146.754 5.97326 147.005 6.44349 147.131 7.05042C147.262 7.65187 147.328 8.35995 147.328 9.17465C147.328 9.96201 147.227 10.5908 147.025 11.061C146.828 11.5313 146.453 11.8566 145.901 12.037C146.355 12.13 146.672 12.3569 146.852 12.7178C147.038 13.0732 147.131 13.5352 147.131 14.1039V19.5662H144.285V13.9152C144.285 13.4942 144.198 13.2345 144.023 13.1361C143.853 13.0322 143.577 12.9802 143.194 12.9802V19.5662H140.275ZM143.211 10.4787H143.908C144.307 10.4787 144.507 10.044 144.507 9.17465C144.507 8.61147 144.463 8.24239 144.375 8.06742C144.288 7.89245 144.124 7.80497 143.883 7.80497H143.211V10.4787Z" fill="#EFEFEF"/>
<path d="M148.951 19.5662V5.13123H151.805V10.9134L153.151 5.13123H156.054L154.438 11.7418L156.39 19.5662H153.397L151.822 12.5783V19.5662H148.951Z" fill="#EFEFEF"/>
<path d="M161.007 19.6974C159.853 19.6974 158.97 19.3502 158.358 18.6558C157.751 17.9559 157.448 16.9471 157.448 15.6294V8.77277C157.448 7.53705 157.748 6.59933 158.35 5.9596C158.957 5.31986 159.842 5 161.007 5C162.172 5 163.055 5.31986 163.656 5.9596C164.263 6.59933 164.567 7.53705 164.567 8.77277V15.6294C164.567 16.9471 164.26 17.9559 163.648 18.6558C163.041 19.3502 162.161 19.6974 161.007 19.6974ZM161.032 17.04C161.469 17.04 161.688 16.6163 161.688 15.7688V8.72356C161.688 8.01275 161.475 7.65734 161.048 7.65734C160.567 7.65734 160.326 8.02095 160.326 8.74816V15.7852C160.326 16.2336 160.381 16.5561 160.49 16.753C160.6 16.9444 160.78 17.04 161.032 17.04Z" fill="#EFEFEF"/>
<path d="M169.741 19.6974C168.538 19.6974 167.653 19.3611 167.084 18.6886C166.515 18.0106 166.231 17.0154 166.231 15.7032V5.13123H169.036V15.5884C169.036 15.8289 169.05 16.0613 169.077 16.2855C169.104 16.5042 169.167 16.6846 169.266 16.8268C169.364 16.969 169.523 17.04 169.741 17.04C169.965 17.04 170.127 16.9717 170.225 16.835C170.324 16.6928 170.384 16.5097 170.406 16.2855C170.433 16.0613 170.447 15.8289 170.447 15.5884V5.13123H173.252V15.7032C173.252 17.0154 172.967 18.0106 172.399 18.6886C171.83 19.3611 170.944 19.6974 169.741 19.6974Z" fill="#EFEFEF"/>
<path d="M176.269 19.5662V7.90339H174.555V5.13123H180.87V7.90339H179.156V19.5662H176.269Z" fill="#EFEFEF"/>
<path d="M12.1508 11.0892L13.0274 10.4301L24.097 18.5783C24.1636 18.0947 24.1997 17.6006 24.2021 17.0992V17.0294C24.2021 16.8701 24.1989 16.714 24.1922 16.5579V16.5246C24.1856 16.3752 24.1757 16.2258 24.1627 16.0763C24.1594 16.0498 24.1594 16.0232 24.1528 15.9934C24.1265 15.6846 24.0869 15.3823 24.0342 15.0802C24.0078 14.9241 23.9749 14.7647 23.9419 14.6086C23.876 14.2964 23.797 13.9909 23.7015 13.6888C23.6126 13.3865 23.5072 13.0911 23.3886 12.8021C23.3293 12.6594 23.27 12.5232 23.2107 12.3837C23.2107 12.377 23.2074 12.3737 23.2041 12.3703C23.079 12.0847 22.9406 11.8091 22.7858 11.5368C22.4895 10.9922 22.1436 10.4742 21.7584 9.98927L22.6871 5.06438C22.9077 3.78912 22.4335 2.50066 21.383 1.52767H21.3798C20.3292 0.557947 18.8077 0 17.2039 0H8.7962C7.19573 0 5.67088 0.557947 4.61709 1.52767C3.73444 2.34455 3.26031 3.38402 3.26031 4.45005C3.26031 4.6526 3.27679 4.85857 3.31299 5.06438L4.2417 9.98927C3.85644 10.4741 3.51062 10.9922 3.21425 11.5368C3.05944 11.8091 2.92111 12.0848 2.79603 12.3703C2.7928 12.3736 2.78941 12.377 2.78941 12.3837C2.7301 12.5232 2.67079 12.6592 2.61148 12.8021C2.49287 13.0911 2.38751 13.3867 2.29863 13.6888C2.25257 13.8415 2.20636 13.9909 2.16693 14.147C2.01874 14.7082 1.91661 15.2828 1.8573 15.8738C1.84744 15.9701 1.83759 16.0664 1.83096 16.1594C1.82434 16.2558 1.81787 16.3521 1.81125 16.4484C1.80801 16.5447 1.80462 16.641 1.80139 16.7373C1.80139 16.7871 1.79816 16.8336 1.79816 16.8834V17.0296C1.79816 17.5716 1.83791 18.1048 1.91014 18.6272L12.151 11.0895L12.1508 11.0892ZM7.12656 3.24453C7.56126 2.84595 8.18374 2.61684 8.84889 2.61684H17.1512C17.8131 2.61684 18.4388 2.84595 18.8703 3.24453C19.305 3.64637 19.4994 4.17434 19.4037 4.70246L18.9097 7.43549C18.6956 7.29926 18.475 7.16988 18.251 7.05353C18.0403 6.94061 17.8262 6.83436 17.6088 6.7348C17.5924 6.72486 17.5759 6.71818 17.5562 6.7115C17.3256 6.60851 17.0919 6.51221 16.8547 6.42258L16.8514 6.41933C16.7328 6.3794 16.6144 6.33638 16.4925 6.29646C16.3805 6.25654 16.2653 6.22346 16.1499 6.19022C15.633 6.03411 15.0994 5.91792 14.5527 5.8415C14.4803 5.83156 14.4077 5.82162 14.3353 5.81494C14.2728 5.80826 14.2103 5.80174 14.1476 5.79506C14.0521 5.78512 13.9565 5.77518 13.8643 5.7685C13.772 5.76181 13.6831 5.7553 13.5908 5.74862C13.5842 5.75187 13.5776 5.74862 13.5711 5.74862C13.3834 5.73542 13.1891 5.73199 12.9981 5.73199C12.8071 5.73199 12.6129 5.73525 12.4251 5.74862C12.3296 5.7553 12.2341 5.76198 12.1386 5.7685C11.9673 5.78186 11.7961 5.79832 11.6281 5.81836C11.3285 5.85486 11.0353 5.90472 10.7454 5.96453C10.6565 5.98441 10.5677 6.00445 10.4786 6.02433C10.2942 6.06425 10.1131 6.11395 9.93515 6.16382C9.8529 6.18712 9.77048 6.21368 9.68823 6.24024C9.37861 6.33329 9.07561 6.44279 8.78263 6.56566C8.69036 6.60216 8.59825 6.64208 8.50937 6.68184C8.45668 6.70514 8.404 6.72828 8.35132 6.75484C8.15045 6.84447 7.95282 6.94419 7.75858 7.04702C7.64336 7.10682 7.52474 7.17314 7.41275 7.24288C7.30077 7.30269 7.19217 7.36901 7.08665 7.43549L6.59264 4.70246C6.50037 4.1745 6.69477 3.64637 7.12608 3.24453H7.12656Z" fill="#EB4026"/>
<path d="M26 20.7933V22.9412H23.4955L13.0365 15.2422L13 15.2699L2.57443 22.9412H0V20.7933H1.88069L13 12.6094L13.0365 12.5818L24.1925 20.7933H26Z" fill="white"/>
<path d="M12.6166 18.8861H10.9351V20.5816H12.6166V18.8861Z" fill="white"/>
<path d="M15.0649 18.8861H13.3835V20.5816H15.0649V18.8861Z" fill="white"/>
<path d="M12.6166 21.2457H10.9351V22.9412H12.6166V21.2457Z" fill="white"/>
<path d="M15.0649 21.2457H13.3835V22.9412H15.0649V21.2457Z" fill="white"/>
</svg>
